<svg fill="none" height="659" viewBox="0 0 698 659" width="698" xmlns="http://www.w3.org/2000/svg"><path clip-rule="evenodd" d="m371.806.273705-5.894.463536-5.429.463539-5.894.87557-5.894 1.39061-5.946 1.80264-5.894 2.26618-5.894 2.21468-6.36 3.19324-39.966 19.4171-40.38 19.4685-40.845 19.005-40.432 19.005-65.8172 31.1597-32.6762 15.864-32.2108 15.811-10.444 5.872-4.0845 2.73-3.6709 2.729-3.1539 3.142-2.74022 3.193-2.68855 3.142-1.8096 3.142-1.39597 3.657-.87895 3.605-.930648 4.069v4.532 4.532l.465325 5.408 1.809593 10.868 8.16902 37.083 8.6344 36.619 16.8034 73.702 11.3229 45.684 10.9093 46.097 10.9093 45.684 10.4439 46.147 1.3443 5.408 1.8096 5.46 1.8096 4.944 2.2749 4.533 2.2749 4.532 2.7403 4.069 2.6885 4.069 3.2056 3.605 3.1536 3.193 3.619 3.142 4.137 3.193 4.084 2.215 4.498 2.73 4.55 1.802 5.015 2.266 5.429 1.391 8.169 3.142 59.045 18.541 58.993 18.542 25.851 7.674 25.438 6.798 5.894 1.339 5.48.927 5.894.464h5.895l5.894-.464 5.894-.927 5.48-1.339 5.429-1.802 2.275-.927 110.334-47.024 109.816-47.486 41.776-18.542 41.311-18.541 5.894-2.73 5.48-3.142 4.964-3.193 4.084-3.142 4.085-3.142 3.205-3.656 2.275-3.606 2.275-4.069 1.81-4.068.879-4.533.465-4.532.465-4.944-.465-5.408-.879-5.46-.93-5.871-1.81-6.799-17.269-65.101-34.951-125.258-34.951-125.721-2.74-8.138-3.619-7.262-4.085-6.747-4.963-6.335-5.481-5.923-6.359-4.9446-6.825-4.9959-7.704-4.0688-36.76-17.6144-36.761-18.0779-36.347-18.5415-17.682-9.5283-17.683-9.9402-6.359-3.6053-5.946-2.72975-5.894-2.26618-5.894-2.26618-5.894-1.33911-5.429-1.3391-5.894-.463539z" fill="#042729" fill-rule="evenodd"/></svg>